HIERARCHY
ROOT Hip
{
  OFFSET 0.0 0.0 0.0
  CHANNELS 6 Xposition Yposition Zposition Xrotation Yrotation Zrotation
  JOINT LowerSpine
  {
    OFFSET 0.0 0.061367 -0.03653
    CHANNELS 3 Xrotation Yrotation Zrotation
    JOINT MiddleSpine
    {
      OFFSET 0.0 0.056002 0.002633
      CHANNELS 3 Xrotation Yrotation Zrotation
      JOINT Chest
      {
        OFFSET 0.0 0.069296 -0.013882
        CHANNELS 3 Xrotation Yrotation Zrotation
        JOINT Neck
        {
          OFFSET 0.0 0.156156 -0.002923
          CHANNELS 3 Xrotation Yrotation Zrotation
          JOINT Head
          {
            OFFSET 0.0 0.088183 0.023986
            CHANNELS 3 Xrotation Yrotation Zrotation
            End Site
            {
              OFFSET 1e-06 0.123215 0.003678
            }
          }
        }
        JOINT LClavicle
        {
          OFFSET 0.014189 0.150698 0.046467
          CHANNELS 3 Xrotation Yrotation Zrotation
          JOINT LShoulder
          {
            OFFSET 0.082893 0.021616 -0.034976
            CHANNELS 3 Xrotation Yrotation Zrotation
            JOINT LForearm
            {
              OFFSET 0.195645 -0.000695 -0.001695
              CHANNELS 3 Xrotation Yrotation Zrotation
              JOINT LHand
              {
                OFFSET 0.163209 0.000474 -0.000977
                CHANNELS 3 Xrotation Yrotation Zrotation
                End Site
                {
                  OFFSET 0.0 0.006864 0.0
                }
              }
            }
          }
        }
        JOINT RClavicle
        {
          OFFSET -0.014189 0.150698 0.046467
          CHANNELS 3 Xrotation Yrotation Zrotation
          JOINT RShoulder
          {
            OFFSET -0.082908 0.021619 -0.034982
            CHANNELS 3 Xrotation Yrotation Zrotation
            JOINT RForearm
            {
              OFFSET -0.195645 -0.000695 -0.001695
              CHANNELS 3 Xrotation Yrotation Zrotation
              JOINT RHand
              {
                OFFSET -0.163209 0.000474 -0.000977
                CHANNELS 3 Xrotation Yrotation Zrotation
                End Site
                {
                  OFFSET 0.0 0.006864 0.0
                }
              }
            }
          }
        }
      }
    }
  }
  JOINT RThigh
  {
    OFFSET -0.072558 0.02774 -0.005953
    CHANNELS 3 Xrotation Yrotation Zrotation
    JOINT RShin
    {
      OFFSET -0.005253 -0.285537 0.0
      CHANNELS 3 Xrotation Yrotation Zrotation
      JOINT RFoot
      {
        OFFSET 0.0 -0.28038 0.0
        CHANNELS 3 Xrotation Yrotation Zrotation
        JOINT RToe
        {
          OFFSET 0.0 -0.030816 0.064441
          CHANNELS 3 Xrotation Yrotation Zrotation
          End Site
          {
            OFFSET 0.0 0.0 0.043231
          }
        }
      }
    }
  }
  JOINT LThigh
  {
    OFFSET 0.072557 0.027741 -0.005953
    CHANNELS 3 Xrotation Yrotation Zrotation
    JOINT LShin
    {
      OFFSET 0.005253 -0.285539 0.0
      CHANNELS 3 Xrotation Yrotation Zrotation
      JOINT LFoot
      {
        OFFSET 0.0 -0.28038 0.0
        CHANNELS 3 Xrotation Yrotation Zrotation
        JOINT LToe
        {
          OFFSET 0.0 -0.030816 0.064441
          CHANNELS 3 Xrotation Yrotation Zrotation
          End Site
          {
            OFFSET 0.0 0.0 0.043231
          }
        }
      }
    }
  }
}
MOTION
Frames: 15
Frame Time: 0.03333333333333333
-0.029906 0.563092 -0.05872 7.521658 -1.359397 -0.98917 1.309918 -0.006583 -0.858368 0.177659 1.336791 -0.442829 -3.620356 3.693426 -1.531646 -0.590971 0.256432 0.208829 0.064792 -0.034725 -0.01874 -0.803918 -1.807433 -6.009559 20.497513 -20.527403 -42.504475 11.458576 -39.380882 1.192204 0.183357 0.251749 -0.165885 -1.669822 0.840363 7.581632 13.216781 24.62324 46.62323 7.332932 35.413616 -3.41095 0.240838 -0.466776 0.005544 -21.29533 -0.577419 -5.803859 16.487322 -3.071986 5.330965 -2.293643 1.428039 0.275527 0.18981 0.692131 0.086002 -12.830213 7.018169 11.440836 11.142563 8.39377 -7.596279 -2.75167 -0.25115 -0.030291 0.089645 -0.163262 -0.065161 
-0.02479 0.566593 -0.052832 4.982554 -0.643833 -1.97274 1.315528 -0.279161 -0.3138 -0.804084 1.560122 0.360869 -4.40537 3.545443 0.576411 -0.194174 0.284527 -0.161356 0.073887 -0.225007 -0.081189 -0.87345 -3.048445 -6.940809 18.848675 -16.35918 -45.561852 9.823193 -37.382244 3.866353 0.173409 0.275698 -0.196934 -2.173577 0.589946 7.63303 13.713019 16.575565 47.17207 7.852222 42.524361 -6.469232 -0.039764 -0.394914 -0.024296 -16.193439 -2.319637 -5.781807 11.815571 -3.29997 5.077652 -0.87991 1.093355 -0.04461 0.031232 0.607749 0.15024 -8.746217 6.610251 9.170345 7.181997 6.306356 -5.376724 -2.685335 -0.132996 0.57899 0.136293 -0.271944 -0.074033 
-0.023032 0.56717 -0.054491 3.135248 -0.140679 -2.317443 1.124504 -0.283345 -0.458901 -0.734471 1.486623 0.32772 -3.54524 2.32205 0.94388 -0.174149 0.231768 -0.286368 0.05538 -0.137296 -0.074788 -0.849753 -2.896165 -7.902186 17.565277 -15.546221 -47.226997 7.699017 -35.064938 3.536396 0.121375 0.213957 -0.156227 -1.954202 0.705827 7.307693 10.998968 10.651915 46.632935 3.397882 57.439636 -8.335476 0.031799 -0.357548 -0.012826 -13.082167 -3.772474 -5.892154 7.808934 -3.558103 4.932747 -0.610363 1.542366 0.200866 0.094459 0.549536 0.116974 -5.537868 5.216276 7.67999 5.061932 5.048013 -3.584625 -3.191236 0.26438 0.827533 0.108867 -0.148268 -0.014209 
-0.010956 0.569206 -0.0433 2.78428 0.072867 -2.574215 0.826559 -0.158186 -0.437227 -0.587788 1.312392 0.330604 -2.971848 1.239744 1.520257 -0.259314 0.138344 -0.375066 0.044239 -0.06417 -0.057657 -0.849913 -2.361928 -9.215084 16.905468 -14.701277 -48.583275 6.95886 -33.059818 2.734117 0.096165 0.1621 -0.129188 -1.538016 0.480322 7.112212 8.401532 5.323155 45.543488 0.145548 75.430237 -12.821501 0.108274 -0.324454 -0.001505 -10.890813 -4.49927 -5.973051 5.633745 -3.72981 4.560502 -0.511985 1.661818 0.394189 0.155792 0.459298 0.078685 -3.107396 3.923058 6.24827 3.431194 3.858466 -1.933022 -3.539356 0.778951 1.000533 0.078791 -0.071599 0.017762 
-0.002702 0.568914 -0.030545 3.272793 0.562832 -2.597872 0.474244 -0.046323 -0.385982 -0.401056 1.193551 0.248581 -2.629028 0.004898 1.757185 -0.411027 0.036839 -0.443999 0.027115 0.025476 -0.040268 -0.827044 -1.709858 -10.465787 16.687895 -14.214664 -49.359623 6.408945 -31.029699 1.740748 0.06856 0.104527 -0.087829 -1.066094 0.218895 6.91066 6.36442 2.434026 43.723305 71.546722 88.477356 -90.570892 0.185357 -0.2846 0.011823 -8.552897 -4.800307 -6.136662 3.574114 -3.695723 4.069771 -0.807456 1.643691 0.592633 0.19199 0.364608 0.040935 -1.483958 2.47414 5.066842 2.041159 3.20231 -0.624402 -3.632651 1.30514 1.085178 0.045101 0.001242 0.04688 
-0.000594 0.566698 -0.016128 3.148269 0.714141 -2.65996 0.149678 0.073472 -0.309524 -0.132819 1.120746 0.134563 -1.622957 -0.488366 2.189436 -0.630942 -0.031483 -0.527394 0.012926 0.118434 -0.023377 -0.819828 -1.168576 -11.496675 16.526321 -14.212987 -50.329529 5.490522 -28.162489 0.745883 0.042395 0.05795 -0.049585 -0.666799 -0.062118 6.589169 2.758671 1.468825 41.055588 154.091873 79.081429 -178.481476 0.259673 -0.257675 0.024049 -5.848014 -4.066206 -6.004678 1.704867 -3.08491 3.520724 -1.333447 1.625612 0.755253 0.214247 0.286367 0.008907 0.812434 0.643326 4.406767 0.720071 2.580495 0.377114 -3.926297 1.85672 1.205889 0.012103 0.056636 0.065783 
-0.002413 0.566351 -0.0081 2.804277 0.407379 -2.39693 -0.011939 0.15492 -0.257347 0.032241 1.136887 -0.023449 -0.835441 -0.641991 2.454346 -0.720946 -0.049303 -0.576837 0.001452 0.173541 -0.006923 -0.905213 -0.884164 -12.418169 16.44982 -14.607111 -51.529861 4.633036 -24.76689 0.187918 0.020215 0.026432 -0.010858 -0.373881 -0.240519 6.095582 -2.159966 2.651967 39.056084 153.60408 73.21386 178.471298 0.289965 -0.216876 0.031145 -3.816645 -3.019648 -5.771526 0.376211 -2.399811 2.915862 -1.907833 1.554007 0.841578 0.235774 0.222868 -0.014356 2.728903 -0.874968 4.012675 -0.233351 1.941401 1.224882 -4.40756 2.400746 1.357993 -0.012953 0.09347 0.075479 
-0.004406 0.568012 -0.003542 2.539033 -0.153031 -2.136323 -0.084475 0.213974 -0.223289 0.110052 1.136145 -0.125343 -0.430936 -0.804105 2.631876 -0.766289 -0.039931 -0.606889 -0.008293 0.194926 0.005771 -1.022121 -0.750392 -13.148624 16.361952 -15.0502 -52.725681 3.914006 -22.00477 -0.164074 0.00071 -0.001398 0.019427 -0.178717 -0.266461 5.700327 -6.662138 3.942836 37.697136 152.889771 70.387253 177.023422 0.292626 -0.176204 0.034949 -2.587589 -2.268769 -5.538582 -0.249075 -1.949974 2.416032 -2.365732 1.488025 0.867365 0.237481 0.175403 -0.024217 3.857468 -1.905185 3.70013 -0.792945 1.425382 1.828866 -4.870132 2.861388 1.499799 -0.034281 0.121215 0.078382 
-0.005217 0.570379 -0.000114 2.444367 -0.739665 -2.133424 -0.200684 0.252465 -0.163533 0.158355 1.118423 -0.129754 -0.283783 -0.988497 2.627419 -0.828942 -0.028872 -0.61595 -0.016193 0.187407 0.013849 -1.076595 -0.615656 -13.817991 16.345863 -15.510904 -53.717384 3.43363 -20.327965 -0.456423 -0.011048 -0.022923 0.033299 0.008279 -0.308495 5.463263 -10.574551 5.232992 36.527897 152.090744 69.143013 176.012863 0.270569 -0.137246 0.034387 -1.785987 -1.771745 -5.269157 -0.572066 -1.700654 1.947422 -2.472795 1.463153 0.880357 0.232118 0.142964 -0.025728 4.483447 -2.185743 3.560889 -0.961664 1.281113 2.083538 -5.167635 3.179532 1.638822 -0.047903 0.139468 0.079077 
-0.005404 0.572566 0.001785 2.343388 -1.075822 -2.23213 -0.270548 0.255424 -0.103394 0.193984 1.134793 -0.08108 -0.315379 -1.089133 2.616485 -0.817593 -0.013537 -0.599209 -0.021432 0.165863 0.021025 -1.139308 -0.556976 -14.361209 16.141453 -15.950812 -54.670479 3.030321 -18.984552 -0.716312 -0.020446 -0.040394 0.041671 0.123372 -0.366518 5.26086 -14.236885 6.306892 35.66597 151.085571 68.945297 175.507538 0.234004 -0.09922 0.032257 -1.180201 -1.470834 -5.028099 -0.773217 -1.576519 1.624864 -2.514248 1.400207 0.853073 0.21668 0.10642 -0.026243 4.747521 -2.208382 3.407282 -0.95587 1.11691 2.31474 -5.357227 3.437312 1.771016 -0.054517 0.150844 0.079597 
-0.004535 0.574034 0.003371 2.332943 -1.299021 -2.311019 -0.376802 0.246327 -0.029353 0.23106 1.141379 -0.033998 -0.405603 -1.14266 2.541271 -0.8105 -0.00401 -0.580633 -0.02592 0.147022 0.026689 -1.183805 -0.493831 -14.9403 15.903124 -16.218695 -55.579807 2.589251 -18.00153 -0.954323 -0.030107 -0.056639 0.049694 0.237939 -0.467102 5.142261 -18.120512 7.222619 34.929859 149.915253 69.06575 175.244003 0.197643 -0.065391 0.029485 -0.754814 -1.229578 -4.819794 -0.959397 -1.453902 1.27499 -2.571434 1.303212 0.809468 0.201227 0.074371 -0.024917 4.82176 -2.22405 3.09408 -0.917515 0.964039 2.495194 -5.521187 3.694032 1.901196 -0.059455 0.157786 0.079111 
-0.002693 0.575078 0.005146 2.236209 -1.538098 -2.411191 -0.475302 0.230047 0.048036 0.248087 1.137188 0.027493 -0.430113 -1.102478 2.54293 -0.817811 0.01372 -0.537224 -0.027081 0.122946 0.029917 -1.238233 -0.468795 -15.485079 15.781856 -16.480917 -56.474602 2.318123 -17.413761 -1.127166 -0.035078 -0.063521 0.050979 0.335447 -0.580071 5.053911 -21.741514 7.883257 34.005642 148.766144 69.901291 174.905899 0.157752 -0.041842 0.024765 -0.385254 -1.028059 -4.556846 -1.095608 -1.261375 0.974584 -2.592704 1.238042 0.771305 0.187369 0.051746 -0.022185 5.077332 -2.081932 2.750221 -0.91806 0.988608 2.605633 -5.727688 3.917569 2.01947 -0.063265 0.156734 0.076516 
-0.000398 0.576302 0.006309 2.085449 -1.781392 -2.529353 -0.553883 0.192875 0.121307 0.268817 1.131384 0.112125 -0.413399 -1.00526 2.523602 -0.832035 0.033269 -0.479431 -0.025892 0.092919 0.03131 -1.28655 -0.507331 -15.954981 15.633378 -16.726624 -57.370708 2.113671 -17.11186 -1.250785 -0.035807 -0.063367 0.047501 0.411215 -0.647745 4.990718 -24.684719 8.321322 33.304539 147.728439 70.806 174.703552 0.116562 -0.026063 0.019788 -0.125635 -0.845367 -4.261629 -1.137155 -1.072623 0.685036 -2.582935 1.190879 0.730537 0.173439 0.040397 -0.016006 5.329741 -1.850024 2.41853 -0.882024 1.047982 2.65117 -5.9198 4.08351 2.12446 -0.063158 0.14981 0.072008 
0.001705 0.577289 0.006754 1.890042 -2.046586 -2.60943 -0.59733 0.169387 0.176866 0.281695 1.128411 0.181901 -0.39496 -0.889916 2.520919 -0.82537 0.041873 -0.425934 -0.024256 0.071459 0.032792 -1.308681 -0.523603 -16.310001 15.430999 -16.913427 -58.117477 2.030384 -17.099682 -1.374112 -0.035483 -0.061595 0.043426 0.478222 -0.706553 4.87534 -27.234453 8.763736 32.651958 146.864075 71.704849 174.526337 0.086189 -0.014779 0.015939 -0.015 -0.648215 -4.026577 -1.081388 -0.897904 0.461144 -2.570218 1.163845 0.706434 0.165702 0.034303 -0.011219 5.575443 -1.514288 2.159417 -0.823375 1.151123 2.676999 -6.050596 4.199209 2.200156 -0.062741 0.143335 0.068272 
0.003739 0.577907 0.006566 1.742126 -2.36586 -2.691835 -0.620025 0.145841 0.217621 0.277611 1.125262 0.257936 -0.410999 -0.74601 2.546624 -0.819856 0.049135 -0.380761 -0.021334 0.050087 0.031872 -1.302936 -0.5371 -16.55217 15.2763 -17.16482 -58.722694 2.06543 -17.28236 -1.454578 -0.032322 -0.05574 0.036122 0.532285 -0.773093 4.686405 -29.497784 9.448637 31.898859 146.236633 72.872276 174.32724 0.06048 -0.007598 0.012312 -0.081193 -0.451542 -3.836383 -0.944584 -0.751539 0.298539 -2.5235 1.157027 0.684635 0.159375 0.036823 -0.005315 5.752224 -1.115858 2.003915 -0.731521 1.306336 2.650503 -6.16923 4.275157 2.266281 -0.05993 0.133777 0.064783 
